<svg width="24" height="25" viewBox="0 0 24 25" fill="currentColor" xmlns="http://www.w3.org/2000/svg">
    <path d="M17.0009 11.4999H9.41087L12.7109 8.20994C12.8992 8.02164 13.005 7.76624 13.005 7.49994C13.005 7.23364 12.8992 6.97825 12.7109 6.78994C12.5226 6.60164 12.2672 6.49585 12.0009 6.49585C11.7346 6.49585 11.4792 6.60164 11.2909 6.78994L6.29087 11.7899C6.19983 11.885 6.12847 11.9972 6.08087 12.1199C5.98085 12.3634 5.98085 12.6365 6.08087 12.8799C6.12847 13.0027 6.19983 13.1148 6.29087 13.2099L11.2909 18.2099C11.3838 18.3037 11.4944 18.3781 11.6163 18.4288C11.7382 18.4796 11.8689 18.5057 12.0009 18.5057C12.1329 18.5057 12.2636 18.4796 12.3854 18.4288C12.5073 18.3781 12.6179 18.3037 12.7109 18.2099C12.8046 18.117 12.879 18.0064 12.9298 17.8845C12.9805 17.7627 13.0067 17.632 13.0067 17.4999C13.0067 17.3679 12.9805 17.2372 12.9298 17.1154C12.879 16.9935 12.8046 16.8829 12.7109 16.7899L9.41087 13.4999H17.0009C17.2661 13.4999 17.5204 13.3946 17.708 13.207C17.8955 13.0195 18.0009 12.7652 18.0009 12.4999C18.0009 12.2347 17.8955 11.9804 17.708 11.7928C17.5204 11.6053 17.2661 11.4999 17.0009 11.4999Z"
          fill="currentColor"/>
</svg>
