<svg width="18" height="21" viewBox="0 0 18 21" fill="none" xmlns="http://www.w3.org/2000/svg">
    <path d="M14 18.9999C13.71 18.9999 13.44 18.9399 13.24 18.8499C12.53 18.4799 12.03 17.9699 11.53 16.4699C11.02 14.9099 10.06 14.1799 9.14 13.4699C8.35 12.8599 7.53 12.2299 6.82 10.9399C6.29 9.97994 6 8.92994 6 7.99995C6 5.19995 8.2 2.99994 11 2.99994C13.56 2.99994 15.63 4.84995 15.95 7.30995C16.01 7.70995 16.36 7.99995 16.77 7.99995H17.11C17.61 7.99995 18 7.55995 17.94 7.05995C17.49 3.58995 14.61 0.999945 11 0.999945C7.07 0.999945 4 4.06995 4 7.99995C4 9.25994 4.38 10.6499 5.07 11.8999C5.98 13.5499 7.05 14.3799 7.92 15.0499C8.73 15.6699 9.31 16.1199 9.63 17.0999C10.23 18.9199 11 19.9399 12.36 20.6499C12.87 20.8799 13.43 20.9999 14 20.9999C15.84 20.9999 17.39 19.7599 17.86 18.0699C18 17.5299 17.61 16.9999 17.05 16.9999H16.7C16.32 16.9999 16.02 17.2699 15.89 17.6299C15.63 18.4199 14.88 18.9999 14 18.9999ZM3.97 0.969945C3.54 0.539945 2.85 0.579945 2.47 1.03994C0.93 2.93994 0 5.35995 0 7.99995C0 10.6399 0.93 13.0599 2.47 14.9499C2.85 15.4099 3.54 15.4499 3.96 15.0299C4.32 14.6699 4.35 14.0999 4.03 13.7099C2.77 12.1599 2 10.1699 2 7.99995C2 5.82995 2.77 3.83994 4.04 2.29994C4.37 1.89995 4.33 1.32995 3.97 0.969945ZM8.5 7.99995C8.5 9.37994 9.62 10.4999 11 10.4999C12.38 10.4999 13.5 9.37994 13.5 7.99995C13.5 6.61995 12.38 5.49995 11 5.49995C9.62 5.49995 8.5 6.61995 8.5 7.99995Z"
          fill="currentColor"/>
</svg>
