<svg width="24" height="25" viewBox="0 0 24 25" fill="none" xmlns="http://www.w3.org/2000/svg">
<path d="M21.1696 2.56012C20.4528 2.43665 19.7269 2.3731 18.9996 2.37012C16.518 2.36809 14.0881 3.07969 11.9996 4.42012C9.90574 3.09729 7.47625 2.40315 4.9996 2.42012C4.27224 2.4231 3.5464 2.48665 2.8296 2.61012C2.5948 2.6506 2.38218 2.77358 2.23001 2.95691C2.07784 3.14025 1.99613 3.37189 1.9996 3.61012V15.6101C1.99745 15.7571 2.02772 15.9027 2.08825 16.0366C2.14877 16.1705 2.23806 16.2894 2.34977 16.3849C2.46148 16.4803 2.59285 16.55 2.73455 16.589C2.87625 16.6279 3.02479 16.6351 3.1696 16.6101C4.60262 16.362 6.0708 16.4032 7.48766 16.7312C8.90453 17.0592 10.2414 17.6675 11.4196 18.5201L11.5396 18.5901H11.6496C11.7605 18.6363 11.8795 18.6601 11.9996 18.6601C12.1197 18.6601 12.2387 18.6363 12.3496 18.5901H12.4596L12.5796 18.5201C13.7496 17.6484 15.0826 17.0205 16.4997 16.6735C17.9169 16.3265 19.3893 16.2675 20.8296 16.5001C20.9744 16.5251 21.1229 16.5179 21.2646 16.479C21.4063 16.44 21.5377 16.3703 21.6494 16.2749C21.7611 16.1794 21.8504 16.0605 21.9109 15.9266C21.9715 15.7927 22.0017 15.6471 21.9996 15.5001V3.50012C21.9892 3.27228 21.9012 3.05483 21.7502 2.88386C21.5993 2.71289 21.3944 2.59866 21.1696 2.56012ZM10.9996 15.8501C9.14948 14.8768 7.09011 14.3688 4.9996 14.3701C4.6696 14.3701 4.3396 14.3701 3.9996 14.3701V4.37012C4.33265 4.35093 4.66654 4.35093 4.9996 4.37012C7.13298 4.36776 9.21981 4.99381 10.9996 6.17012V15.8501ZM19.9996 14.4101C19.6596 14.4101 19.3296 14.4101 18.9996 14.4101C16.9091 14.4088 14.8497 14.9168 12.9996 15.8901V6.17012C14.7794 4.99381 16.8662 4.36776 18.9996 4.37012C19.3327 4.35093 19.6665 4.35093 19.9996 4.37012V14.4101ZM21.1696 18.5601C20.4528 18.4367 19.7269 18.3731 18.9996 18.3701C16.518 18.3681 14.0881 19.0797 11.9996 20.4201C9.91111 19.0797 7.48123 18.3681 4.9996 18.3701C4.27224 18.3731 3.5464 18.4367 2.8296 18.5601C2.69942 18.5808 2.57462 18.627 2.46236 18.696C2.3501 18.7651 2.2526 18.8557 2.17546 18.9625C2.09833 19.0694 2.04308 19.1905 2.0129 19.3188C1.98272 19.4471 1.9782 19.5801 1.9996 19.7101C2.05042 19.9698 2.20209 20.1988 2.42139 20.3468C2.64069 20.4949 2.90974 20.55 3.1696 20.5001C4.60262 20.252 6.0708 20.2932 7.48766 20.6212C8.90453 20.9492 10.2414 21.5575 11.4196 22.4101C11.589 22.5307 11.7917 22.5955 11.9996 22.5955C12.2075 22.5955 12.4102 22.5307 12.5796 22.4101C13.7578 21.5575 15.0947 20.9492 16.5115 20.6212C17.9284 20.2932 19.3966 20.252 20.8296 20.5001C21.0895 20.55 21.3585 20.4949 21.5778 20.3468C21.7971 20.1988 21.9488 19.9698 21.9996 19.7101C22.021 19.5801 22.0165 19.4471 21.9863 19.3188C21.9561 19.1905 21.9009 19.0694 21.8237 18.9625C21.7466 18.8557 21.6491 18.7651 21.5368 18.696C21.4246 18.627 21.2998 18.5808 21.1696 18.5601Z" fill="black"/>
</svg>
