<svg width="25" height="25" viewBox="0 0 25 25" fill="none" xmlns="http://www.w3.org/2000/svg">
<path d="M22.9712 11.4999C22.974 10.7951 22.7905 10.102 22.4393 9.49092C22.0881 8.87981 21.5816 8.37235 20.9712 8.01993C20.9862 7.84693 20.9862 7.67294 20.9712 7.49993C20.9712 6.70428 20.6551 5.94122 20.0925 5.37861C19.5299 4.816 18.7668 4.49993 17.9712 4.49993H17.7912C17.6246 4.03825 17.3474 3.62447 16.9837 3.29488C16.62 2.96529 16.1811 2.72997 15.7053 2.60954C15.2295 2.48911 14.7314 2.48725 14.2547 2.60413C13.778 2.72102 13.3373 2.95306 12.9712 3.27993C12.6051 2.95306 12.1643 2.72102 11.6876 2.60413C11.211 2.48725 10.7129 2.48911 10.2371 2.60954C9.76129 2.72997 9.32231 2.96529 8.95864 3.29488C8.59496 3.62447 8.3177 4.03825 8.15118 4.49993H7.97118C7.17553 4.49993 6.41246 4.816 5.84986 5.37861C5.28725 5.94122 4.97118 6.70428 4.97118 7.49993C4.95613 7.67294 4.95613 7.84693 4.97118 8.01993C4.40364 8.34073 3.92311 8.79538 3.57142 9.34431C3.21973 9.89323 3.00753 10.5198 2.95331 11.1695C2.89909 11.8191 3.00448 12.4722 3.26032 13.0719C3.51615 13.6715 3.91466 14.1995 4.42118 14.6099C4.09345 15.2212 3.93029 15.9072 3.94772 16.6005C3.96515 17.2939 4.16257 17.9708 4.5206 18.5648C4.87863 19.1589 5.38496 19.6496 5.98991 19.9888C6.59485 20.3281 7.27761 20.5042 7.97118 20.4999H8.15118C8.3177 20.9616 8.59496 21.3754 8.95864 21.705C9.32231 22.0346 9.76129 22.2699 10.2371 22.3903C10.7129 22.5108 11.211 22.5126 11.6876 22.3957C12.1643 22.2789 12.6051 22.0468 12.9712 21.7199C13.3373 22.0468 13.778 22.2789 14.2547 22.3957C14.7314 22.5126 15.2295 22.5108 15.7053 22.3903C16.1811 22.2699 16.62 22.0346 16.9837 21.705C17.3474 21.3754 17.6246 20.9616 17.7912 20.4999H17.9712C18.6605 20.4956 19.337 20.3131 19.9351 19.9703C20.5331 19.6275 21.0324 19.136 21.3846 18.5434C21.7367 17.9508 21.9298 17.2772 21.9449 16.588C21.9601 15.8989 21.7969 15.2175 21.4712 14.6099C21.9376 14.2365 22.3145 13.7633 22.574 13.2251C22.8336 12.6869 22.9693 12.0974 22.9712 11.4999ZM11.9712 9.04993C11.7534 8.92536 11.526 8.81836 11.2912 8.72993C11.0392 8.64506 10.7639 8.66376 10.5257 8.78191C10.2875 8.90006 10.106 9.10798 10.0212 9.35993C9.93631 9.61189 9.955 9.88724 10.0732 10.1254C10.1913 10.3636 10.3992 10.5451 10.6512 10.6299C11.0361 10.7691 11.3691 11.023 11.6051 11.3574C11.8412 11.6918 11.969 12.0906 11.9712 12.4999V14.0499C11.7534 13.9254 11.526 13.8184 11.2912 13.7299C11.0392 13.6451 10.7639 13.6638 10.5257 13.7819C10.2875 13.9001 10.106 14.108 10.0212 14.3599C9.93631 14.6119 9.955 14.8872 10.0732 15.1254C10.1913 15.3636 10.3992 15.5451 10.6512 15.6299C11.0361 15.7691 11.3691 16.023 11.6051 16.3574C11.8412 16.6918 11.969 17.0906 11.9712 17.4999V19.4999C11.9712 19.7652 11.8658 20.0195 11.6783 20.207C11.4907 20.3946 11.2364 20.4999 10.9712 20.4999C10.7777 20.4987 10.5888 20.4413 10.4272 20.3348C10.2657 20.2283 10.1386 20.0773 10.0612 19.8999C10.2289 19.8015 10.3893 19.6913 10.5412 19.5699C10.6423 19.4859 10.7259 19.3827 10.7871 19.2664C10.8484 19.1501 10.8861 19.0228 10.8982 18.8919C10.9103 18.7609 10.8964 18.6289 10.8575 18.5033C10.8185 18.3777 10.7552 18.2611 10.6712 18.1599C10.5871 18.0588 10.484 17.9752 10.3676 17.914C10.2513 17.8527 10.124 17.815 9.9931 17.8029C9.86217 17.7908 9.73014 17.8047 9.60456 17.8436C9.47898 17.8826 9.36229 17.9459 9.26118 18.0299C8.9001 18.3339 8.44316 18.5004 7.97118 18.4999C7.44074 18.4999 6.93203 18.2892 6.55696 17.9141C6.18189 17.5391 5.97118 17.0304 5.97118 16.4999C5.97596 16.1235 6.08688 15.7561 6.29118 15.4399C6.5156 15.4802 6.74317 15.5003 6.97118 15.4999C7.23639 15.4999 7.49075 15.3946 7.67828 15.207C7.86582 15.0195 7.97118 14.7651 7.97118 14.4999C7.97118 14.2347 7.86582 13.9804 7.67828 13.7928C7.49075 13.6053 7.23639 13.4999 6.97118 13.4999C6.73496 13.5013 6.5007 13.4572 6.28118 13.3699C5.92152 13.2402 5.60658 13.0101 5.37367 12.7069C5.14075 12.4037 4.99963 12.0401 4.967 11.6592C4.93438 11.2783 5.01163 10.896 5.1896 10.5576C5.36758 10.2192 5.63881 9.93891 5.97118 9.74993C6.11327 9.88067 6.26728 9.99785 6.43118 10.0999C6.66191 10.2325 6.93588 10.2681 7.19281 10.1987C7.44973 10.1293 7.66857 9.96067 7.80118 9.72993C7.93378 9.49919 7.9693 9.22523 7.89991 8.9683C7.83052 8.71138 7.66191 8.49254 7.43118 8.35993C7.2904 8.28228 7.173 8.16833 7.09118 8.02993C6.99872 7.86938 6.9569 7.68465 6.97118 7.49993C6.97118 7.23472 7.07653 6.98036 7.26407 6.79283C7.45161 6.60529 7.70596 6.49993 7.97118 6.49993C8.04084 6.49022 8.11151 6.49022 8.18118 6.49993C8.23411 6.6606 8.29759 6.81761 8.37118 6.96993C8.43651 7.08452 8.52386 7.18505 8.62821 7.26574C8.73255 7.34642 8.85183 7.40566 8.97917 7.44005C9.10651 7.47445 9.2394 7.4833 9.37018 7.46612C9.50096 7.44894 9.62704 7.40605 9.74118 7.33993C9.96288 7.20654 10.1243 6.99241 10.1914 6.74253C10.2585 6.49265 10.2262 6.22647 10.1012 5.99993C10.0173 5.84654 9.97261 5.67477 9.97118 5.49993C9.97118 5.23472 10.0765 4.98036 10.2641 4.79283C10.4516 4.60529 10.706 4.49993 10.9712 4.49993C11.2364 4.49993 11.4907 4.60529 11.6783 4.79283C11.8658 4.98036 11.9712 5.23472 11.9712 5.49993V9.04993ZM19.6612 13.3699C19.4417 13.4572 19.2074 13.5013 18.9712 13.4999C18.706 13.4999 18.4516 13.6053 18.2641 13.7928C18.0765 13.9804 17.9712 14.2347 17.9712 14.4999C17.9712 14.7651 18.0765 15.0195 18.2641 15.207C18.4516 15.3946 18.706 15.4999 18.9712 15.4999C19.1992 15.5003 19.4268 15.4802 19.6512 15.4399C19.8555 15.7561 19.9664 16.1235 19.9712 16.4999C19.9712 17.0304 19.7605 17.5391 19.3854 17.9141C19.0103 18.2892 18.5016 18.4999 17.9712 18.4999C17.4992 18.5004 17.0422 18.3339 16.6812 18.0299C16.477 17.8602 16.2137 17.7785 15.9493 17.8029C15.6848 17.8273 15.4409 17.9557 15.2712 18.1599C15.1014 18.3641 15.0198 18.6274 15.0442 18.8919C15.0685 19.1563 15.197 19.4002 15.4012 19.5699C15.5531 19.6913 15.7135 19.8015 15.8812 19.8999C15.8038 20.0773 15.6766 20.2283 15.5151 20.3348C15.3536 20.4413 15.1646 20.4987 14.9712 20.4999C14.706 20.4999 14.4516 20.3946 14.2641 20.207C14.0765 20.0195 13.9712 19.7652 13.9712 19.4999V17.4999C13.9734 17.0906 14.1012 16.6918 14.3372 16.3574C14.5733 16.023 14.9062 15.7691 15.2912 15.6299C15.5431 15.5451 15.7511 15.3636 15.8692 15.1254C15.9873 14.8872 16.006 14.6119 15.9212 14.3599C15.8363 14.108 15.6548 13.9001 15.4167 13.7819C15.1785 13.6638 14.9031 13.6451 14.6512 13.7299C14.4164 13.8184 14.189 13.9254 13.9712 14.0499V12.4999C13.9734 12.0906 14.1012 11.6918 14.3372 11.3574C14.5733 11.023 14.9062 10.7691 15.2912 10.6299C15.5431 10.5451 15.7511 10.3636 15.8692 10.1254C15.9873 9.88724 16.006 9.61189 15.9212 9.35993C15.8363 9.10798 15.6548 8.90006 15.4167 8.78191C15.1785 8.66376 14.9031 8.64506 14.6512 8.72993C14.4164 8.81836 14.189 8.92536 13.9712 9.04993V5.49993C13.9712 5.23472 14.0765 4.98036 14.2641 4.79283C14.4516 4.60529 14.706 4.49993 14.9712 4.49993C15.2364 4.49993 15.4907 4.60529 15.6783 4.79283C15.8658 4.98036 15.9712 5.23472 15.9712 5.49993C15.9697 5.67477 15.9251 5.84654 15.8412 5.99993C15.7746 6.11347 15.7312 6.23902 15.7133 6.36939C15.6953 6.49976 15.7033 6.63239 15.7368 6.75966C15.7702 6.88694 15.8285 7.00636 15.9082 7.11108C15.9878 7.21581 16.0874 7.30377 16.2012 7.36993C16.3153 7.43605 16.4414 7.47894 16.5722 7.49612C16.703 7.5133 16.8358 7.50445 16.9632 7.47005C17.0905 7.43566 17.2098 7.37642 17.3141 7.29574C17.4185 7.21505 17.5058 7.11452 17.5712 6.99993C17.646 6.83787 17.7095 6.6708 17.7612 6.49993C17.8308 6.49022 17.9015 6.49022 17.9712 6.49993C18.2364 6.49993 18.4907 6.60529 18.6783 6.79283C18.8658 6.98036 18.9712 7.23472 18.9712 7.49993C18.9696 7.69597 18.9105 7.88723 18.8012 8.04993C18.7194 8.1797 18.6058 8.28641 18.4712 8.35993C18.2404 8.49254 18.0718 8.71138 18.0024 8.9683C17.9331 9.22523 17.9686 9.49919 18.1012 9.72993C18.2338 9.96067 18.4526 10.1293 18.7095 10.1987C18.9665 10.2681 19.2404 10.2325 19.4712 10.0999C19.6507 10.0028 19.8185 9.8854 19.9712 9.74993C20.3047 9.93557 20.5781 10.2128 20.7591 10.5488C20.9402 10.8848 21.0213 11.2656 20.9929 11.6462C20.9645 12.0268 20.8278 12.3914 20.5989 12.6968C20.37 13.0023 20.0585 13.2358 19.7012 13.3699H19.6612Z" fill="black"/>
</svg>
