<svg width="14" height="21" viewBox="0 0 14 21" fill="currentColor" xmlns="http://www.w3.org/2000/svg">
    <path d="M4.00391 19.5H10.0039M7.00391 1.5C3.6902 1.5 1.00391 4.18629 1.00391 7.5C1.00391 8.7145 1.36475 9.84472 1.98507 10.7893C2.93898 12.2418 3.41551 12.9676 3.47743 13.0761C4.02819 14.041 3.92678 13.7007 3.99609 14.8096C4.00389 14.9342 4.00391 15.1229 4.00391 15.5C4.00391 16.0523 4.45162 16.5 5.00391 16.5L9.00391 16.5C9.55619 16.5 10.0039 16.0523 10.0039 15.5C10.0039 15.1229 10.0039 14.9342 10.0117 14.8096C10.081 13.7007 9.97902 14.041 10.5298 13.0761C10.5917 12.9676 11.069 12.2418 12.0229 10.7893C12.6433 9.84472 13.0041 8.7145 13.0041 7.5C13.0041 4.18629 10.3176 1.5 7.00391 1.5Z"
          stroke="currentColor" stroke-width="2" stroke-linecap="round" stroke-linejoin="round"/>
</svg>
