<svg width="24" height="25" viewBox="0 0 24 25" fill="currentColor" xmlns="http://www.w3.org/2000/svg">
<path d="M7 15.5H10C10.2652 15.5 10.5196 15.3946 10.7071 15.2071C10.8946 15.0196 11 14.7652 11 14.5C11 14.2348 10.8946 13.9804 10.7071 13.7929C10.5196 13.6054 10.2652 13.5 10 13.5H7C6.73478 13.5 6.48043 13.6054 6.29289 13.7929C6.10536 13.9804 6 14.2348 6 14.5C6 14.7652 6.10536 15.0196 6.29289 15.2071C6.48043 15.3946 6.73478 15.5 7 15.5ZM19 5.5H5C4.20435 5.5 3.44129 5.81607 2.87868 6.37868C2.31607 6.94129 2 7.70435 2 8.5V17.5C2 18.2956 2.31607 19.0587 2.87868 19.6213C3.44129 20.1839 4.20435 20.5 5 20.5H19C19.7956 20.5 20.5587 20.1839 21.1213 19.6213C21.6839 19.0587 22 18.2956 22 17.5V8.5C22 7.70435 21.6839 6.94129 21.1213 6.37868C20.5587 5.81607 19.7956 5.5 19 5.5ZM20 17.5C20 17.7652 19.8946 18.0196 19.7071 18.2071C19.5196 18.3946 19.2652 18.5 19 18.5H5C4.73478 18.5 4.48043 18.3946 4.29289 18.2071C4.10536 18.0196 4 17.7652 4 17.5V11.5H20V17.5ZM20 9.5H4V8.5C4 8.23478 4.10536 7.98043 4.29289 7.79289C4.48043 7.60536 4.73478 7.5 5 7.5H19C19.2652 7.5 19.5196 7.60536 19.7071 7.79289C19.8946 7.98043 20 8.23478 20 8.5V9.5Z" fill="currentColor"/>
</svg>
